<?xml version="1.0" encoding="UTF-8"?>
<svg width="16px" height="20px" viewBox="0 0 16 20" version="1.1" xmlns="http://www.w3.org/2000/svg" xmlns:xlink="http://www.w3.org/1999/xlink">
    <!-- Generator: sketchtool 58 (101010) - https://sketch.com -->
    <title>A3636DC9-FB9E-4C1D-B5C4-CCCEC5FEADCA</title>
    <desc>Created with sketchtool.</desc>
    <g id="Page-1" stroke="none" stroke-width="1" fill="none" fill-rule="evenodd">
        <g id="l_klasy" transform="translate(-455.000000, -549.000000)">
            <g id="icon_file" transform="translate(451.000000, 547.000000)">
                <polygon id="Path" points="0 0 24 0 24 24 0 24"></polygon>
                <path d="M14,2 L6,2 C4.8954305,2 4,2.8954305 4,4 L4,20 C4,21.1045695 4.8954305,22 6,22 L18,22 C19.1045695,22 20,21.1045695 20,20 L20,8 L14,2 L14,2 Z M18,20 L6,20 L6,4 L13,4 L13,9 L18,9 L18,20 Z" id="Shape" fill-opacity="0.5" fill="#FA1414" fill-rule="nonzero"></path>
            </g>
        </g>
    </g>
</svg>