<?xml version="1.0" encoding="UTF-8"?>
<svg width="142px" height="150px" viewBox="0 0 142 150" version="1.1" xmlns="http://www.w3.org/2000/svg" xmlns:xlink="http://www.w3.org/1999/xlink">
    <!-- Generator: sketchtool 58 (101010) - https://sketch.com -->
    <title>868D6076-EB37-4F99-BF25-0947952DFD61</title>
    <desc>Created with sketchtool.</desc>
    <g id="Page-1" stroke="none" stroke-width="1" fill="none" fill-rule="evenodd" fill-opacity="0.07">
        <g id="l_home" transform="translate(-649.000000, -577.000000)" fill="#000000">
            <path d="M760.71872,627.039275 L736.040606,651.772139 L755.857419,671.636303 L781.001732,646.43282 L786.00492,651.443722 L710.622654,726.993229 L710.39969,727 L700.619657,727 L743.151821,684.366703 L710.642924,651.772139 L735.314282,627.039275 L760.71872,627.039275 Z M725.955854,676.744038 L730.959042,681.761711 L685.822247,726.991874 L685.602661,726.998646 L675.819249,726.998646 L725.955854,676.744038 Z M791,596.750403 L773.804709,614.28856 L723.105,614.288 L708.440305,628.986078 L698.511629,639.116226 L649,639.116226 L665.979083,621.571297 L691.086236,621.571297 L698.373121,614.271632 L723.042,614.271 L740.008698,596.750403 L791,596.750403 Z M723.496826,577 L723.496826,596.955579 L703.592179,596.955579 L703.592179,577 L723.496826,577 Z" id="illustration_1"></path>
        </g>
    </g>
</svg>