<?xml version="1.0" encoding="UTF-8"?>
<svg width="130px" height="146px" viewBox="0 0 130 146" version="1.1" xmlns="http://www.w3.org/2000/svg" xmlns:xlink="http://www.w3.org/1999/xlink">
    <!-- Generator: sketchtool 58 (101010) - https://sketch.com -->
    <title>B2C380A0-CD98-470D-9F11-27B263F471E5</title>
    <desc>Created with sketchtool.</desc>
    <g id="Page-1" stroke="none" stroke-width="1" fill="none" fill-rule="evenodd" fill-opacity="0.07">
        <g id="l_home" transform="translate(-654.000000, -1842.000000)" fill="#000000">
            <path d="M774.249124,1935.30166 C786.288943,1947.35764 786.286012,1966.90789 774.249124,1978.95801 C762.209305,1991.014 742.694068,1991.014 730.651317,1978.95801 C718.611498,1966.90789 718.611498,1947.35764 730.651317,1935.30166 C742.691137,1923.24861 762.209305,1923.24861 774.249124,1935.30166 Z M735.596819,1940.2538 C726.297986,1949.55925 726.297986,1964.70042 735.590956,1974.01467 C744.886857,1983.32306 760.00479,1983.31719 769.303623,1974.01174 C778.596592,1964.70042 778.602455,1949.55925 769.306554,1940.2538 C760.007721,1930.94542 744.886857,1930.94835 735.596819,1940.2538 Z M768.748096,1866.45542 L768.745165,1866.44955 L753.504108,1881.70227 L738.949031,1881.72575 L738.943168,1881.70521 L715.15082,1857.87504 L736.709337,1857.89265 L745.257697,1866.44075 L768.73637,1866.44075 L756.538248,1854.22918 L768.756891,1842 L780.960876,1854.22624 L768.899,1866.303 L784,1881.42457 L783.970685,1912.28814 L768.735491,1912.28814 L768.735491,1912.27933 L741.627575,1912.28227 L724.741927,1929.19059 L713.9656,1918.39979 L735.03455,1897.30255 L735.043345,1897.31135 L753.825698,1897.31135 L768.735491,1912.24117 L768.756891,1866.44662 L768.748096,1866.45542 Z M706.627671,1867.59087 C718.667491,1879.64098 718.664559,1899.1883 706.627671,1911.24428 C694.587852,1923.30321 675.069684,1923.30321 663.029864,1911.24428 C650.990045,1899.1883 650.990045,1879.64098 663.029864,1867.58793 C675.069684,1855.53488 694.587852,1855.53488 706.627671,1867.59087 Z M667.972435,1872.54007 C658.676533,1881.84846 658.673602,1896.98669 667.972435,1906.29801 C677.265404,1915.6064 692.386268,1915.60052 701.68217,1906.29801 C710.975139,1896.98669 710.978071,1881.84846 701.685101,1872.54007 C692.3892,1863.22875 677.265404,1863.23169 667.972435,1872.54007 Z" id="illustration_3"></path>
        </g>
    </g>
</svg>