<?xml version="1.0" encoding="UTF-8"?>
<svg width="204px" height="61px" viewBox="0 0 204 61" version="1.1" xmlns="http://www.w3.org/2000/svg" xmlns:xlink="http://www.w3.org/1999/xlink">
    <!-- Generator: sketchtool 58 (101010) - https://sketch.com -->
    <title>A0B379FE-9827-4DAF-A732-D76D1B927DF5</title>
    <desc>Created with sketchtool.</desc>
    <defs>
        <polygon id="path-1" points="1.46217803 0.11005 14.5713068 0.11005 14.5713068 8.50082 1.46217803 8.50082"></polygon>
        <polygon id="path-3" points="1.53625758 0.11005 43.7041364 0.11005 43.7041364 31.19127 1.53625758 31.19127"></polygon>
        <polygon id="path-5" points="0 61.890105 203.6675 61.890105 203.6675 1.550155 0 1.550155"></polygon>
    </defs>
    <g id="Page-1" stroke="none" stroke-width="1" fill="none" fill-rule="evenodd">
        <g id="l_home" transform="translate(-165.000000, -2615.000000)">
            <g id="Group-2" transform="translate(0.000000, 2582.000000)">
                <g id="logo_2" transform="translate(165.000000, 32.000000)">
                    <path d="M179.502659,22.90869 C179.502659,24.57184 180.887962,25.92964 182.566788,25.92964 C184.276674,25.92964 185.652659,24.57184 185.652659,22.90869 C185.652659,21.22539 184.276674,19.87224 182.566788,19.87224 C180.887962,19.87224 179.502659,21.22539 179.502659,22.90869" id="Fill-1" fill="#FEFEFE"></path>
                    <g id="Group-5" transform="translate(175.492424, 1.440105)">
                        <mask id="mask-2" fill="white">
                            <use xlink:href="#path-1"></use>
                        </mask>
                        <g id="Clip-4"></g>
                        <polygon id="Fill-3" fill="#FEFEFE" mask="url(#mask-2)" points="10.3035795 0.10912 10.3035795 4.31582 1.46217803 4.31582 1.46217803 8.50082 14.5713068 8.50082 14.5713068 0.10912"></polygon>
                    </g>
                    <polygon id="Fill-6" fill="#FEFEFE" points="175.097644 35.859715 175.097644 44.240565 179.357606 44.240565 179.357606 40.044715 188.202114 40.044715 188.202114 35.859715"></polygon>
                    <path d="M166.725413,28.78474 L166.725413,31.66464 L161.497913,31.66464 L161.497913,44.24134 L165.767193,44.24134 L165.767193,35.85894 L170.988481,35.85894 L170.988481,28.78474 C170.988481,22.48244 176.192686,17.35814 182.572534,17.35814 C188.972572,17.35814 194.184542,22.48244 194.184542,28.78474 L194.184542,35.85894 L199.38564,35.85894 L199.38564,40.04549 L188.202269,40.04549 L188.202269,44.24134 L203.667345,44.24134 L203.667345,31.66464 L198.444504,31.66464 L198.444504,28.78474 C198.444504,20.16829 191.331625,13.15454 182.572534,13.15454 C173.835186,13.15454 166.725413,20.16829 166.725413,28.78474" id="Fill-8" fill="#FEFEFE"></path>
                    <g id="Group-12" transform="translate(159.962121, 1.440105)">
                        <mask id="mask-4" fill="white">
                            <use xlink:href="#path-3"></use>
                        </mask>
                        <g id="Clip-11"></g>
                        <path d="M39.4239848,0.10912 L39.4239848,8.50082 L34.2135682,8.50082 L34.2135682,15.57502 C34.2135682,15.94857 34.1949318,16.29112 34.153,16.63367 C35.487053,18.02557 36.5710682,19.66857 37.3118636,21.44952 C38.0775076,19.63757 38.4812955,17.64892 38.4812955,15.57502 L38.4812955,12.69512 L43.7041364,12.69512 L43.7041364,0.10912 L39.4239848,0.10912 Z M22.6108788,26.99697 C16.217053,26.99697 11.0268258,21.87732 11.0268258,15.57502 L11.0268258,8.50082 L5.80398485,8.50082 L5.80398485,4.31582 L16.9920152,4.31582 L17.0122045,0.10912 L1.53625758,0.10912 L1.53625758,12.69512 L6.75133333,12.69512 L6.75133333,15.57502 C6.75133333,24.18682 13.8735303,31.19127 22.6108788,31.19127 C27.1674697,31.19127 31.2721288,29.30957 34.153,26.27467 C33.99925,24.51697 33.4292879,22.89877 32.5425076,21.44952 C30.5251212,24.77582 26.8289091,26.99697 22.6108788,26.99697 L22.6108788,26.99697 Z" id="Fill-10" fill="#FEFEFE" mask="url(#mask-4)"></path>
                    </g>
                    <polygon id="Fill-13" fill="#FEFEFE" points="54.1633295 54.007115 54.0282159 59.783965 53.1460947 59.783965 53.3852614 52.653965 54.5609053 52.653965 56.6140114 58.168865 58.6733295 52.653965 59.8427614 52.653965 60.080375 59.783965 59.1982538 59.783965 59.0709053 54.007115 57.2429886 58.871015 55.9990114 58.871015"></polygon>
                    <mask id="mask-6" fill="white">
                        <use xlink:href="#path-5"></use>
                    </mask>
                    <g id="Clip-16"></g>
                    <polygon id="Fill-15" fill="#FEFEFE" mask="url(#mask-6)" points="65.9339015 59.783655 66.8532955 59.783655 66.8532955 52.653655 65.9339015 52.653655"></polygon>
                    <path d="M78.2606136,59.78319 L77.3334545,59.78319 L76.7448561,58.06889 L73.7086818,58.06889 L73.1247424,59.78319 L72.1975833,59.78319 L74.6001212,52.65319 L75.8503106,52.65319 L78.2606136,59.78319 Z M75.2213333,53.31814 L73.9525076,57.27219 L76.4963712,57.27219 L75.2213333,53.31814 Z" id="Fill-17" fill="#FEFEFE" mask="url(#mask-6)"></path>
                    <path d="M85.4006705,59.893705 C84.709572,59.893705 83.891125,59.765055 83.2792311,59.521705 L83.4329811,58.771505 C84.0837008,58.963705 84.763928,59.086155 85.4193068,59.086155 C86.5685492,59.086155 86.7999508,58.783905 86.7999508,57.962405 C86.7999508,57.001405 86.7999508,56.919255 85.3230189,56.589105 C83.5929432,56.204705 83.3926023,55.863705 83.3926023,54.394305 C83.3926023,53.152755 83.9082083,52.546705 85.6817689,52.546705 C86.3045341,52.546705 87.0422235,52.630405 87.6044205,52.791605 L87.5345341,53.568155 C86.964572,53.430205 86.2967689,53.366655 85.7004053,53.366655 C84.5340795,53.366655 84.3182083,53.602255 84.3182083,54.429955 C84.3182083,55.404905 84.3182083,55.449855 85.7299129,55.793955 C87.632375,56.271355 87.7286629,56.551905 87.7286629,57.950005 C87.7286629,59.174505 87.3699129,59.893705 85.4006705,59.893705" id="Fill-18" fill="#FEFEFE" mask="url(#mask-6)"></path>
                    <polygon id="Fill-19" fill="#FEFEFE" mask="url(#mask-6)" points="94.8427841 53.486315 92.7166856 53.486315 92.7166856 52.653965 97.9022538 52.653965 97.9022538 53.486315 95.7699432 53.486315 95.7699432 59.782415 94.8427841 59.782415"></polygon>
                    <path d="M107.910136,57.729285 C107.910136,58.911935 107.186424,59.893085 105.330553,59.893085 C103.488659,59.893085 102.75097,58.911935 102.75097,57.729285 L102.75097,54.716085 C102.75097,53.522585 103.488659,52.546085 105.330553,52.546085 C107.186424,52.546085 107.910136,53.522585 107.910136,54.716085 L107.910136,57.729285 Z M103.670364,57.715335 C103.670364,58.587985 104.203053,59.085535 105.330553,59.085535 C106.459606,59.085535 106.995402,58.587985 106.995402,57.715335 L106.995402,54.730035 C106.995402,53.863585 106.459606,53.367585 105.330553,53.367585 C104.203053,53.367585 103.670364,53.863585 103.670364,54.730035 L103.670364,57.715335 Z" id="Fill-20" fill="#FEFEFE" mask="url(#mask-6)"></path>
                    <polygon id="Fill-21" fill="#FEFEFE" mask="url(#mask-6)" points="120.081856 59.783655 121.002803 59.783655 121.002803 52.653655 120.081856 52.653655"></polygon>
                    <polygon id="Fill-22" fill="#FEFEFE" mask="url(#mask-6)" points="127.52553 53.711995 127.52553 59.783345 126.63875 59.783345 126.63875 52.653345 127.899811 52.653345 131.012083 58.763445 131.012083 52.653345 131.897311 52.653345 131.897311 59.783345 130.623826 59.783345"></polygon>
                    <path d="M139.642273,59.893705 C138.948068,59.893705 138.129621,59.765055 137.517727,59.521705 L137.668371,58.771505 C138.328409,58.963705 139.007083,59.086155 139.667121,59.086155 C140.807045,59.086155 141.044659,58.783905 141.044659,57.962405 C141.044659,57.001405 141.029129,56.919255 139.56928,56.589105 C137.840758,56.204705 137.635758,55.863705 137.635758,54.394305 C137.635758,53.152755 138.149811,52.546705 139.921818,52.546705 C140.550795,52.546705 141.290038,52.630405 141.849129,52.791605 L141.776136,53.568155 C141.212386,53.430205 140.539924,53.366655 139.945114,53.366655 C138.775682,53.366655 138.566023,53.602255 138.566023,54.429955 C138.566023,55.404905 138.566023,55.449855 139.96375,55.793955 C141.866212,56.271355 141.965606,56.551905 141.965606,57.950005 C141.965606,59.174505 141.609962,59.893705 139.642273,59.893705" id="Fill-23" fill="#FEFEFE" mask="url(#mask-6)"></path>
                    <path d="M147.653424,52.65381 L150.231455,52.65381 C151.775167,52.65381 152.309409,53.31876 152.309409,54.40376 L152.309409,55.45931 C152.309409,56.57841 151.775167,57.23871 150.231455,57.23871 L148.569712,57.23871 L148.569712,59.78381 L147.653424,59.78381 L147.653424,52.65381 Z M150.200394,53.48616 L148.569712,53.48616 L148.569712,56.40326 L150.200394,56.40326 C151.085621,56.40326 151.380697,56.16611 151.380697,55.45931 L151.380697,54.42856 C151.380697,53.71246 151.085621,53.48616 150.200394,53.48616 L150.200394,53.48616 Z" id="Fill-24" fill="#FEFEFE" mask="url(#mask-6)"></path>
                    <polygon id="Fill-25" fill="#FEFEFE" mask="url(#mask-6)" points="157.744394 59.783655 158.671553 59.783655 158.671553 52.653655 157.744394 52.653655"></polygon>
                    <path d="M167.290405,57.199495 L165.551011,57.199495 L165.551011,59.783345 L164.620746,59.783345 L164.620746,52.653345 L167.341655,52.653345 C168.872943,52.653345 169.41961,53.318295 169.41961,54.403295 L169.41961,55.444895 C169.41961,56.280345 169.104345,56.864695 168.27658,57.094095 L170.141769,59.783345 L169.07639,59.783345 L167.290405,57.199495 Z M167.310595,53.485695 L165.551011,53.485695 L165.551011,56.391945 L167.310595,56.391945 C168.198928,56.391945 168.483133,56.147045 168.483133,55.449545 L168.483133,54.429645 C168.483133,53.711995 168.198928,53.485695 167.310595,53.485695 L167.310595,53.485695 Z" id="Fill-26" fill="#FEFEFE" mask="url(#mask-6)"></path>
                    <path d="M181.024318,59.78319 L180.084735,59.78319 L179.489924,58.06889 L176.466174,58.06889 L175.883788,59.78319 L174.948864,59.78319 L177.362273,52.65319 L178.612462,52.65319 L181.024318,59.78319 Z M177.980379,53.31814 L176.708447,57.27219 L179.258523,57.27219 L177.980379,53.31814 Z" id="Fill-27" fill="#FEFEFE" mask="url(#mask-6)"></path>
                    <path d="M186.991061,57.741375 C186.991061,58.730275 187.371553,59.060425 188.544091,59.060425 C188.980492,59.060425 189.665379,59.006175 190.219811,58.905425 L190.30678,59.691275 C189.798939,59.815275 189.047273,59.894325 188.506818,59.894325 C186.764318,59.894325 186.062348,59.137925 186.062348,57.794075 L186.062348,54.658425 C186.062348,53.300625 186.764318,52.547325 188.506818,52.547325 C189.047273,52.547325 189.798939,52.631025 190.30678,52.753475 L190.219811,53.534675 C189.665379,53.432375 188.980492,53.382775 188.544091,53.382775 C187.371553,53.382775 186.991061,53.706725 186.991061,54.709575 L186.991061,57.741375 Z" id="Fill-28" fill="#FEFEFE" mask="url(#mask-6)"></path>
                    <path d="M196.757136,52.65381 L196.757136,59.81636 C196.757136,60.65026 196.637553,60.75721 195.399788,61.89026 L194.82672,61.24856 C195.806682,60.30461 195.833083,60.27516 195.833083,59.78381 L195.833083,52.65381 L196.757136,52.65381 Z" id="Fill-29" fill="#FEFEFE" mask="url(#mask-6)"></path>
                    <polygon id="Fill-30" fill="#FEFEFE" mask="url(#mask-6)" points="202.698409 59.783655 203.627121 59.783655 203.627121 52.653655 202.698409 52.653655"></polygon>
                    <path d="M64.9954053,3.50641 C64.2747992,2.38576 62.9454053,1.71926 61.5290417,1.60456 C60.8922992,1.54876 60.2586629,1.61076 59.6250265,1.77351 C57.5672614,2.33461 56.1291553,4.10161 55.4442689,6.09491 C55.1833598,6.82806 55.0109735,7.48836 54.883625,7.97661 C47.9726402,7.30236 44.9551023,6.85596 34.7905189,7.22331 C24.851125,7.58756 14.4551402,8.16726 9.63453409,7.75651 C6.74123864,7.52711 3.59169318,6.87301 2.29180682,6.35221 L1.76843561,6.10886 C1.43298106,5.96626 1.17517803,5.84536 0.946882576,5.82831 C0.676655303,5.79731 0.448359848,5.87946 0.241806818,6.31811 C0.0476780303,6.77071 -0.300200758,7.23571 0.519799242,7.73016 C1.33669318,8.22306 4.40548106,9.42586 8.64214773,9.71261 C22.1768068,10.62401 29.7788902,9.59791 39.8844583,9.81801 C47.7645341,9.99936 54.3571477,11.01771 54.3571477,11.01771 C54.3571477,11.01771 53.3135114,17.24716 53.2079053,23.47816 C53.0572614,33.10366 53.9921856,39.98411 54.3975265,41.52326 C54.8183977,43.16471 54.9721477,43.56461 55.4085492,43.79866 C55.8387386,44.02341 56.3776402,44.16911 56.9072235,44.21406 C57.6635492,44.26676 58.4121098,44.11176 58.8516174,43.64521 C59.0674886,43.47161 59.2507462,43.28096 59.3905189,43.02056 C59.6421098,42.62531 59.6622992,42.22386 59.5877538,42.01616 C57.548625,35.88436 56.9988523,30.55546 56.9072235,26.49601 C56.8047235,22.50011 57.2100644,15.59951 57.9135871,11.29206 C59.3594583,11.29206 61.2696856,11.08126 63.0059735,10.13266 C65.8852917,8.58421 66.0204053,5.08741 64.9954053,3.50641 M61.8908977,7.15666 C61.3846098,7.73016 60.0629811,8.31606 58.3903674,8.19826 C58.9152917,5.83451 59.9402917,4.44726 61.3240417,4.55886 C62.4484356,4.66271 63.1177917,5.80041 61.8908977,7.15666 M123.010405,5.52296 C122.297564,4.41316 120.980595,3.72961 119.548701,3.61026 C118.916617,3.56376 118.273663,3.61336 117.643133,3.79316 C115.594686,4.35426 114.153473,6.10886 113.465481,8.10371 C113.215443,8.84926 113.032186,9.49251 112.898625,9.98231 C106.31067,9.33751 103.459307,8.92521 95.9488523,9.27241 C96.8185492,6.07631 97.7938523,5.07191 98.2551023,4.18531 C98.8017689,3.15301 97.3621098,1.95021 95.8743068,1.98896 C94.6769205,2.02461 94.1985871,2.56711 93.8615795,3.02281 C93.5028295,3.52966 92.8800644,4.83011 92.2479811,7.95026 C92.1656705,8.35481 92.0678295,8.87561 91.9622235,9.48941 C85.6786629,9.86451 82.9437765,10.12181 78.7086629,9.77926 C75.8215795,9.53901 72.6813523,8.88181 71.386125,8.35326 L70.8425644,8.13161 C70.513322,7.97661 70.2462008,7.86191 70.0272235,7.84021 C69.7678674,7.81541 69.5380189,7.84331 69.3314659,8.32381 C69.1233598,8.82756 68.7785871,9.26156 69.6032462,9.74206 C70.413928,10.23496 73.5060114,11.32926 77.7085114,11.72916 C83.5479053,12.28716 86.8729432,12.13216 91.5677538,12.04691 C90.9170341,16.65196 90.2383598,23.82536 90.7011629,31.35371 C91.117375,38.08226 91.9591174,42.06266 93.6550265,43.47161 C94.4952159,44.17531 96.9847235,44.99526 99.8034735,43.38171 C109.481958,38.52246 106.357261,24.04236 96.5545341,24.23766 C95.9799129,24.24851 94.9238523,24.43606 94.3041932,24.53681 C94.4330947,18.84211 94.8322235,14.85241 95.3447235,12.00506 C96.6213144,12.00351 98.0050644,12.01591 99.572072,12.05001 C107.447489,12.23911 112.37836,13.03116 112.37836,13.03116 C112.37836,13.03116 111.322299,19.24511 111.345595,25.48076 C111.362678,35.15431 112.154723,40.08796 112.541428,41.64416 C112.979383,43.29026 113.072564,43.58166 113.532261,43.78626 C115.305822,44.56126 116.496996,44.16601 116.942716,43.70256 C117.900936,42.94306 117.818625,42.11536 117.747186,41.92006 C116.267148,37.74436 115.274761,32.21241 115.100822,28.05531 C114.928436,24.06251 115.23283,17.60366 115.928587,13.30551 C117.388436,13.31326 119.287792,13.09161 121.030292,12.15231 C123.900292,10.59611 124.041617,7.10241 123.010405,5.52296 M96.1709356,27.54846 C96.6352917,27.54846 97.1012008,27.61511 97.5469205,27.77166 C99.4369583,28.46451 101.013284,30.18966 101.409307,32.19536 C102.036731,35.32481 100.743057,39.49431 97.5112008,39.99341 C96.8154432,40.10036 96.0420341,40.13601 95.7065795,39.02776 C95.3385114,37.63586 94.6769205,34.13906 94.4672614,27.74221 C94.9409356,27.63216 95.7003674,27.54846 96.1709356,27.54846 M119.924534,9.15616 C119.393398,9.74206 118.088852,10.32331 116.410027,10.19776 C116.927186,7.84331 117.96461,6.45916 119.349913,6.58626 C120.469648,6.67616 121.134345,7.81541 119.924534,9.15616 M126.484534,22.76206 C127.961466,22.76206 129.161958,21.55926 129.161958,20.07126 C129.161958,18.58636 127.961466,17.40216 126.484534,17.40216 C124.998284,17.40216 123.804004,18.58636 123.804004,20.07126 C123.804004,21.55926 124.998284,22.76206 126.484534,22.76206 M152.59408,40.56536 C151.969761,40.28946 150.924572,40.58706 150.777034,39.02776 C150.502148,36.28426 151.306617,33.91896 150.562716,30.12921 C150.057981,27.57946 147.579345,26.36891 145.69086,26.05116 C144.462413,25.85276 142.451239,25.82021 140.315822,27.44771 C140.315822,27.44771 140.025405,26.36891 138.974004,25.97366 C137.795254,25.54431 135.706428,26.74401 134.85692,27.25861 C133.929761,27.81041 134.055557,29.28446 134.946996,29.62236 C135.583739,29.84556 135.42533,29.81146 136.029458,29.99591 C136.736087,30.23771 136.791996,30.41286 136.628928,32.54256 C136.17389,38.47441 136.371125,38.95026 136.208057,43.00971 C136.17389,43.87771 136.386655,44.22026 137.02961,44.22026 C137.655481,44.22026 138.624572,44.22491 139.573473,44.22491 C140.30961,44.22491 140.230405,43.56151 140.200898,43.05466 C140.110822,40.85986 140.075102,37.80481 140.143436,35.43951 C140.163625,34.52191 140.200898,33.57641 140.250595,32.41546 C140.303398,31.87451 140.491314,31.69316 140.935481,31.35061 C141.477489,30.88716 142.01639,30.50741 142.690405,30.18966 C143.611352,29.73086 147.506352,28.69546 147.225254,34.48471 C147.020254,38.51781 146.90533,40.97611 147.667867,42.75241 C148.313928,44.24816 149.491125,44.24816 150.132527,44.24816 C151.665367,44.24816 152.229117,43.93506 152.769572,42.68421 C153.257223,41.55581 153.198208,40.83971 152.59408,40.56536 M83.6224508,40.48786 C83.2108977,40.39021 82.3893447,40.35611 82.1610492,39.55011 C81.9094583,38.19386 81.9280947,36.72756 82.0833977,33.55161 C82.1750265,31.76756 82.4592311,29.11086 82.5726023,28.21806 C82.6642311,27.58566 82.7713902,26.56576 81.6796098,26.56576 C81.0972235,26.56576 80.5490038,26.55336 79.8749886,26.55336 C79.1963144,26.55336 78.6263523,26.83236 78.4337765,28.10491 C78.4337765,28.10491 77.742678,33.95306 78.1216174,38.15821 C78.2147992,39.05256 78.050178,39.45091 77.1525265,40.07246 C75.9240795,40.92031 71.1438523,42.33701 71.1609356,36.42221 C71.1733598,34.20571 71.640822,31.37696 71.640822,28.33431 C71.640822,27.09431 71.2401402,26.39216 70.2462008,25.97366 C69.1016174,25.48386 66.8077917,26.90366 66.1353295,27.25861 C65.186428,27.79801 65.3339659,29.28446 66.2285114,29.62236 C66.8621477,29.84556 66.7006326,29.81146 67.3094205,29.99591 C68.0067311,30.23771 68.1263144,30.43611 67.8980189,32.54256 C67.7520341,33.86626 67.6510871,35.34806 67.595178,35.83476 C67.4833598,36.81901 67.2737008,39.11921 67.8172614,40.77926 C68.6465795,43.24531 70.6903674,44.31171 72.5835114,44.62171 C74.2312765,44.88986 76.9040417,44.45741 78.7723371,43.25771 C79.0021856,43.09961 78.9835492,43.10736 79.0953674,43.03761 C79.6327159,43.94281 80.097072,44.24196 81.7029053,44.24196 C82.8801023,44.24196 83.5913902,43.88081 84.1271856,42.54781 C84.3974129,41.87666 84.7033598,40.75291 83.6224508,40.48786 M129.576617,40.56536 C128.994231,40.29876 128.037564,40.55916 127.798398,39.30831 C127.643095,38.48526 127.734723,36.49506 127.798398,35.06131 C127.905557,33.10366 128.192867,30.78641 128.203739,28.33431 C128.203739,27.09431 127.798398,26.39216 126.813777,25.97366 C125.662981,25.48386 123.36139,26.90366 122.693587,27.25861 C121.747792,27.79801 121.892223,29.28446 122.796087,29.62236 C123.423511,29.84556 123.263549,29.81146 123.870784,29.99591 C124.577413,30.23771 124.692337,30.43611 124.468701,32.54256 C124.363095,33.50511 124.095973,36.21761 124.088208,37.15381 C124.088208,38.08226 124.013663,41.12646 124.650405,42.75241 C125.223473,44.24816 126.408436,44.24816 127.077792,44.24816 C128.619951,44.24816 129.222527,43.93506 129.753663,42.68421 C130.022337,42.06731 130.082905,41.75731 130.062716,41.31091 C130.047186,41.00556 129.927602,40.73896 129.576617,40.56536" id="Fill-31" fill="#FEFEFE" mask="url(#mask-6)"></path>
                </g>
            </g>
        </g>
    </g>
</svg>