<?xml version="1.0" standalone="no"?>
<!DOCTYPE svg PUBLIC "-//W3C//DTD SVG 1.1//EN" "http://www.w3.org/Graphics/SVG/1.1/DTD/svg11.dtd" >
<svg xmlns="http://www.w3.org/2000/svg">
<metadata>Generated by IcoMoon</metadata>
<defs>
<font id="font-icon-lublin" horiz-adv-x="1024">
<font-face units-per-em="1024" ascent="768" descent="-256" />
<missing-glyph horiz-adv-x="1024" />
<glyph unicode="&#x20;" horiz-adv-x="512" d="" />
<glyph unicode="&#xe900;" glyph-name="icon_arrow_2_left" horiz-adv-x="683" d="M632.32-135.68l-390.827 391.68 390.827 391.68-120.32 120.32-512-512 512-512z" />
<glyph unicode="&#xe901;" glyph-name="icon_arrow_2_right" horiz-adv-x="683" d="M50.347-135.68l390.827 391.68-390.827 391.68 120.32 120.32 512-512-512-512z" />
<glyph unicode="&#xe902;" glyph-name="icon_file" horiz-adv-x="819" d="M512 768h-409.6c-56.554 0-102.4-45.846-102.4-102.4v-819.2c0-56.554 45.846-102.4 102.4-102.4h614.4c56.554 0 102.4 45.846 102.4 102.4v614.4l-307.2 307.2zM716.8-153.6h-614.4v819.2h358.4v-256h256v-563.2z" />
<glyph unicode="&#xe903;" glyph-name="icon_login" d="M910.222 768h-796.444c-63.147 0-113.778-50.631-113.778-113.778v-227.556h113.778v227.556h796.444v-796.444h-796.444v227.556h-113.778v-227.556c0-62.838 50.94-113.778 113.778-113.778h796.444c62.838 0 113.778 50.94 113.778 113.778v796.444c0 63.147-51.2 113.778-113.778 113.778v0zM402.773 52.338l80.782-80.782 284.444 284.444-284.444 284.444-80.782-80.213 147.342-147.342h-550.116v-113.778h550.116l-147.342-146.773z" />
<glyph unicode="&#xe904;" glyph-name="icon_mail" horiz-adv-x="1195" d="M1166.222 711.111h-1137.209l-0.569-910.222h1137.778v910.222zM1052.444-85.333h-910.222v568.889l455.111-284.444 455.111 284.444v-568.889zM597.333 312.889l-455.111 284.444h910.222l-455.111-284.444z" />
<glyph unicode="&#xe905;" glyph-name="icon_sent" horiz-adv-x="1078" d="M592.842 67.368h215.579v161.684l269.474-242.526-269.474-242.526v161.684h-215.579v161.684zM970.105 768h-862.316c-59.53 0-107.789-48.259-107.789-107.789v-646.737c0-59.53 48.259-107.789 107.789-107.789h377.263v107.789h-377.263v538.947l431.158-269.474 431.158 269.474v-323.368h107.789v431.158c0 59.53-48.259 107.789-107.789 107.789v0zM538.947 390.737l-431.158 269.474h862.316l-431.158-269.474z" />
<glyph unicode="&#xe906;" glyph-name="icon_date_16" horiz-adv-x="878" d="M877.714 621.714h-146.286v97.524h-97.524v-97.524h-390.095v97.524h-97.524v-97.524h-146.286v-877.714h877.714v877.714zM780.19-158.476h-682.667v536.381h682.667v-536.381zM195.048 280.381h243.81v-243.81h-243.81v243.81z" />
<glyph unicode="&#xe907;" glyph-name="icon_facebook" horiz-adv-x="512" d="M512 768v0 0-204.8h-102.4c-35.328 0-51.2-41.472-51.2-76.8v-128h153.6v-204.8h-153.6v-409.6h-204.8v409.6h-153.6v204.8h153.6v204.8c0 113.108 91.692 204.8 204.8 204.8h153.6z" />
<glyph unicode="&#xe908;" glyph-name="icon_youtube" horiz-adv-x="1365" d="M546.133 85.333l354.304 204.8-354.304 204.8v-409.6zM1335.296 619.861c8.875-32.085 15.019-75.093 19.115-129.707 4.779-54.613 6.827-101.717 6.827-142.677l4.096-57.344c0-149.504-10.923-259.413-30.037-329.728-17.067-61.44-56.661-101.035-118.101-118.101-32.085-8.875-90.795-15.019-180.907-19.115-88.747-4.779-169.984-6.827-245.077-6.827l-108.544-4.096c-286.037 0-464.213 10.923-534.528 30.037-61.44 17.067-101.035 56.661-118.101 118.101-8.875 32.085-15.019 75.093-19.115 129.707-4.779 54.613-6.827 101.717-6.827 142.677l-4.096 57.344c0 149.504 10.923 259.413 30.037 329.728 17.067 61.44 56.661 101.035 118.101 118.101 32.085 8.875 90.795 15.019 180.907 19.115 88.747 4.779 169.984 6.827 245.077 6.827l108.544 4.096c286.037 0 464.213-10.923 534.528-30.037 61.44-17.067 101.035-56.661 118.101-118.101z" />
<glyph unicode="&#xe909;" glyph-name="icon_pin_2" horiz-adv-x="731" d="M365.714 743.619c-188.709 0-341.333-152.625-341.333-341.333 0-256 341.333-633.905 341.333-633.905s341.333 377.905 341.333 633.905c0 188.709-152.625 341.333-341.333 341.333zM365.714 280.381c-67.291 0-121.905 54.613-121.905 121.905s54.613 121.905 121.905 121.905c67.291 0 121.905-54.613 121.905-121.905s-54.613-121.905-121.905-121.905z" />
<glyph unicode="&#xe90a;" glyph-name="icon_phone" d="M1024 59.164l-299.804 34.702-143.36-143.36c-160.996 81.92-292.978 213.333-374.898 374.898l143.929 143.929-34.702 298.667h-313.458c-32.996-579.129 443.164-1055.289 1022.293-1022.293v313.458z" />
<glyph unicode="&#xe90b;" glyph-name="discipline" d="M929.89 92.177l69.73 69.73-69.73 69.73-174.080-174.080-417.89 417.89 174.080 174.080-69.73 69.73-69.73-69.73-69.73 69.73-104.35-104.35-69.73 69.73-69.73-69.73 69.73-69.73-104.35-104.35 69.73-69.73-69.73-69.73 69.73-69.73 174.080 174.080 417.89-417.89-174.080-174.080 69.73-69.73 69.73 69.73 69.73-69.73 104.35 104.35 69.73-69.73 69.73 69.73-69.73 69.73 104.35 104.35z" />
<glyph unicode="&#xe90c;" glyph-name="icon_discipline" d="M929.89 116.541l69.73 69.73-69.73 69.73-174.080-174.080-417.89 417.89 174.080 174.080-69.73 69.73-69.73-69.73-69.73 69.73-104.35-104.35-69.73 69.73-69.73-69.73 69.73-69.73-104.35-104.35 69.73-69.73-69.73-69.73 69.73-69.73 174.080 174.080 417.89-417.89-174.080-174.080 69.73-69.73 69.73 69.73 69.73-69.73 104.35 104.35 69.73-69.73 69.73 69.73-69.73 69.73 104.35 104.35z" />
<glyph unicode="&#xe90d;" glyph-name="iconm_search" d="M711.111 142.222h-44.942l-15.929 15.36c55.751 64.853 89.316 149.049 89.316 240.64 0 204.231-165.547 369.778-369.778 369.778s-369.778-165.547-369.778-369.778c0-204.231 165.547-369.778 369.778-369.778 91.591 0 175.787 33.564 240.64 89.316l15.36-15.929v-44.942l284.444-283.876 84.764 84.764-283.876 284.444zM369.778 142.222c-141.653 0-256 114.347-256 256s114.347 256 256 256c141.653 0 256-114.347 256-256s-114.347-256-256-256z" />
<glyph unicode="&#xe90e;" glyph-name="icon_check" d="M1024 768h-1024v-1024h1024v1024zM398.222-28.444l-284.444 284.444 80.213 80.213 204.231-203.662 431.787 431.787 80.213-80.782-512-512z" />
<glyph unicode="&#xe90f;" glyph-name="icon_arrow_24" d="M512 768l-90.24-90.24 357.12-357.76h-778.88v-128h778.88l-357.12-357.76 90.24-90.24 512 512z" />
<glyph unicode="&#xe910;" glyph-name="icon_www" d="M735.232 153.6c4.096 33.792 7.168 67.584 7.168 102.4s-3.072 68.608-7.168 102.4h173.056c8.192-32.768 13.312-67.072 13.312-102.4s-5.12-69.632-13.312-102.4h-173.056zM644.608-131.072c30.72 56.832 54.272 118.272 70.656 182.272h151.040c-49.152-84.48-127.488-150.016-221.696-182.272v0zM631.808 153.6h-239.616c-5.12 33.792-8.192 67.584-8.192 102.4s3.072 69.12 8.192 102.4h239.616c4.608-33.28 8.192-67.584 8.192-102.4s-3.584-68.608-8.192-102.4v0zM512-151.552c-42.496 61.44-76.8 129.536-97.792 202.752h195.584c-20.992-73.216-55.296-141.312-97.792-202.752v0zM307.2 460.8h-149.504c48.64 84.992 127.488 150.528 221.184 182.272-30.72-56.832-53.76-118.272-71.68-182.272v0zM157.696 51.2h149.504c17.92-64 40.96-125.44 71.68-182.272-93.696 32.256-172.544 97.792-221.184 182.272v0zM115.712 153.6c-8.192 32.768-13.312 67.072-13.312 102.4s5.12 69.632 13.312 102.4h173.056c-4.096-33.792-7.168-67.584-7.168-102.4s3.072-68.608 7.168-102.4h-173.056zM512 664.064c42.496-61.44 76.8-130.048 97.792-203.264h-195.584c20.992 73.216 55.296 141.824 97.792 203.264v0zM866.304 460.8h-151.040c-16.384 64-39.936 125.44-70.656 182.272 94.208-32.256 172.544-97.28 221.696-182.272v0zM512 768c-283.136 0-512-230.4-512-512 0-135.791 53.943-266.020 149.961-362.039s226.248-149.961 362.039-149.961c282.77 0 512 229.23 512 512 0 135.791-53.943 266.020-149.961 362.039s-226.248 149.961-362.039 149.961z" />
<glyph unicode="&#xe911;" glyph-name="icon_play" d="M1024 256c0-282.77-229.23-512-512-512s-512 229.23-512 512c0 282.77 229.23 512 512 512s512-229.23 512-512zM512-17.067c-150.528 0-273.067 122.539-273.067 273.067s122.539 273.067 273.067 273.067c150.528 0 273.067-122.539 273.067-273.067s-122.539-273.067-273.067-273.067v0zM512 597.333c-188.513 0-341.333-152.82-341.333-341.333 0-90.527 35.962-177.347 99.974-241.359s150.832-99.974 241.359-99.974c90.527 0 177.347 35.962 241.359 99.974s99.974 150.832 99.974 241.359c0 90.527-35.962 177.347-99.974 241.359s-150.832 99.974-241.359 99.974v0zM443.733 102.4l204.8 153.6-204.8 153.6v-307.2z" />
<glyph unicode="&#xe912;" glyph-name="illustration_1" horiz-adv-x="969" d="M505.892 513.443l-100.113-100.335-67.78-69.155h-337.999l115.911 119.773h171.398l49.745 49.832h168.411l115.822 119.612h348.101l-117.387-119.727h-346.108zM372.683 631.77v136.23h135.882v-136.23h-135.882zM183.086-255.991l342.266 343.071 34.155-34.254-308.134-308.771-1.499-0.046h-66.788zM589.239 426.399h173.428l-168.469-168.843 135.283-135.606 171.652 172.056 34.155-34.208-514.61-515.751-1.522-0.046h-66.765l290.353 291.043-221.927 222.512 168.423 168.843z" />
<glyph unicode="&#xe913;" glyph-name="illustration_2" horiz-adv-x="1134" d="M631.143 628.56l-121.457-0.021v-121.499l121.457 0.021v121.499zM187.085-89.195c34.452 14.329 78.099 18.638 126.674 18.576 51.729 0 108.757-4.639 166.074-4.68 64.347 0.041 129.601 5.876 188.732 33.091 55.069 25.318 103.355 70.429 137.292 142.157l-31.916 31.916c-31.091-72.883-73.316-112.283-123.21-135.539-49.977-23.174-109.066-29.236-170.898-29.174-55.028 0-111.891 4.66-166.074 4.68-50.843-0.041-99.644-4.082-142.9-21.854-38.060-15.484-71.068-43.049-93.294-85.088l31.813-31.854c18.411 41.194 44.059 63.502 77.707 77.769v0zM685.079-88.164c-50.018-23.215-109.066-29.277-170.898-29.194-55.049-0.041-111.912 4.639-166.032 4.68-50.884-0.082-99.706-4-142.941-21.854-38.761-15.752-72.202-44.121-94.449-87.5l31.813-31.854c18.473 42.822 44.513 65.646 78.882 80.161 34.431 14.35 78.099 18.659 126.694 18.597 51.729 0 108.675-4.66 166.032-4.66 64.368 0.021 129.663 5.835 188.67 33.091 45.874 21.050 87.006 55.75 119.045 107.994l-31.050 31.112c-28.761-50.884-64.594-81.377-105.768-100.572v0zM1129.055 657.218l-0.041 110.798-198.793-0.021v-33.833h-731.383l-0.021 33.854-198.814-0.021v-110.778h198.855l-0.021 33.792h107.706l0.021-313.282h267.635l105.768-104.572h154.301l0.021 417.854h95.933v-33.792h198.835zM727.076 378.285h-151.641l-105.499 104.634-56.183-0.021v208.113h313.323v-312.725zM492.78 155.163l88.676-88.717-0.825 149.538-89.294 89.356-272.46-272.46h151.641l122.261 122.282z" />
<glyph unicode="&#xe914;" glyph-name="illustration_3" horiz-adv-x="912" d="M805.871 597.54l105.91-106.052-0.206-216.468-296.982 0.041-118.431-118.59-75.582 75.683 147.833 147.908h131.734l104.573-104.713 0.143 321.182-0.055-0.055-0.021 0.041-106.896-106.978-102.085-0.165-0.041 0.144-166.872 167.138 151.205-0.124 59.956-59.954h164.672l-85.554 85.648 85.698 85.772 85.595-85.751-84.595-84.708zM843.391 113.61c84.444-84.557 84.423-221.677 0-306.192-84.444-84.557-221.318-84.557-305.782 0-84.444 84.516-84.444 221.635 0 306.192 84.444 84.536 221.338 84.536 305.782 0zM572.254-157.911c65.199-65.286 171.231-65.245 236.45 0.021 65.178 65.307 65.219 171.502 0.021 236.768-65.219 65.286-171.272 65.266-236.43 0-65.219-65.266-65.219-171.461-0.041-236.789zM369.115 588.513c84.444-84.516 84.423-221.615 0-306.172-84.444-84.578-221.338-84.578-305.782 0-84.444 84.557-84.444 221.656 0 306.192s221.338 84.536 305.782-0.021zM97.998 317.033c65.178-65.286 171.231-65.245 236.43 0 65.178 65.307 65.199 171.482 0.021 236.768-65.199 65.307-171.272 65.286-236.45 0-65.199-65.286-65.219-171.461 0-236.768z" />
<glyph unicode="&#xe915;" glyph-name="icon_arrow_3_down" horiz-adv-x="2048" d="M0 768l1024-1024 1024 1024z" />
<glyph unicode="&#xe916;" glyph-name="illustration_11" horiz-adv-x="969" d="M505.892 513.443l-100.113-100.335-67.78-69.155h-337.999l115.911 119.773h171.398l49.745 49.832h168.411l115.822 119.612h348.101l-117.387-119.727h-346.108zM372.683 631.77v136.23h135.882v-136.23h-135.882zM183.086-255.991l342.266 343.071 34.155-34.254-308.134-308.771-1.499-0.046h-66.788zM589.239 426.399h173.428l-168.469-168.843 135.283-135.606 171.652 172.056 34.155-34.208-514.61-515.751-1.522-0.046h-66.765l290.353 291.043-221.927 222.512 168.423 168.843z" />
</font>
</defs>
</svg>
