<?xml version="1.0" encoding="UTF-8"?>
<svg width="176px" height="49px" viewBox="0 0 176 49" version="1.1" xmlns="http://www.w3.org/2000/svg" xmlns:xlink="http://www.w3.org/1999/xlink">
    <!-- Generator: sketchtool 55.2 (78181) - https://sketchapp.com -->
    <title>0CD16907-0EC1-439D-9BAF-CF608C9D8570</title>
    <desc>Created with sketchtool.</desc>
    <g id="Page-1" stroke="none" stroke-width="1" fill="none" fill-rule="evenodd">
        <g id="l_register_2" transform="translate(-52.000000, -32.000000)">
            <g id="logo_3" transform="translate(52.000000, 32.000000)">
                <path d="M144.28909,17.48725 C144.28909,18.831 145.402195,19.92725 146.752132,19.92725 C148.126998,19.92725 149.232625,18.831 149.232625,17.48725 C149.232625,16.1285 148.126998,15.03475 146.752132,15.03475 C145.402195,15.03475 144.28909,16.1285 144.28909,17.48725" id="Fill-1" fill="#71B641"></path>
                <polygon id="Fill-3" fill="#71B641" points="149.347675 0.2375 149.347675 3.63375 142.240252 3.63375 142.240252 7.015 152.777985 7.015 152.777985 0.2375"></polygon>
                <polygon id="Fill-4" fill="#E3151B" points="140.747968 27.948625 140.747968 34.718625 144.172045 34.718625 144.172045 31.328625 151.281961 31.328625 151.281961 27.948625"></polygon>
                <g id="Group-9" transform="translate(129.653558, 0.000000)">
                    <path d="M4.36454577,22.233375 L4.36454577,24.560875 L0.162665493,24.560875 L0.162665493,34.717125 L3.59422183,34.717125 L3.59422183,27.948375 L7.7911162,27.948375 L7.7911162,22.233375 C7.7911162,17.142125 11.9742993,13.004625 17.1035599,13.004625 C22.2477782,13.004625 26.4371937,17.142125 26.4371937,22.233375 L26.4371937,27.948375 L30.6178838,27.948375 L30.6178838,31.328375 L21.6282782,31.328375 L21.6282782,34.717125 L34.059412,34.717125 L34.059412,24.560875 L29.8612711,24.560875 L29.8612711,22.233375 C29.8612711,15.277125 24.1436725,9.608375 17.1035599,9.608375 C10.0796514,9.608375 4.36454577,15.277125 4.36454577,22.233375" id="Fill-5" fill="#E3151B"></path>
                    <path d="M30.6181331,0.2375 L30.6181331,7.015 L26.4299641,7.015 L26.4299641,12.72625 C26.4299641,13.02875 26.4150063,13.30625 26.3813514,13.58375 C27.4533232,14.70625 28.324612,16.035 28.9204289,17.47125 C29.5361894,16.0075 29.8602739,14.4025 29.8602739,12.72625 L29.8602739,10.40375 L34.0584148,10.40375 L34.0584148,0.2375 L30.6181331,0.2375 Z M17.1038092,21.95125 C11.9645768,21.95125 7.79136549,17.8175 7.79136549,12.72625 L7.79136549,7.015 L3.59447113,7.015 L3.59447113,3.63375 L12.5878162,3.63375 L12.6027739,0.2375 L0.162914789,0.2375 L0.162914789,10.40375 L4.35482324,10.40375 L4.35482324,12.72625 C4.35482324,19.685 10.0799007,25.34 17.1038092,25.34 C20.7659641,25.34 24.0653937,23.81875 26.3813514,21.3675 C26.2567035,19.95125 25.7992458,18.64375 25.0875063,17.47125 C23.4658373,20.16 20.4942317,21.95125 17.1038092,21.95125 L17.1038092,21.95125 Z" id="Fill-7" fill="#71B641"></path>
                </g>
                <polygon id="Fill-10" fill="#010202" points="43.5378228 42.605625 43.4293792 47.269375 42.7201327 47.269375 42.9120904 41.511875 43.8569214 41.511875 45.5072595 45.965625 47.1625834 41.511875 48.103675 41.511875 48.2943862 47.269375 47.5851397 47.269375 47.4829285 42.605625 46.0133299 46.534375 45.0136538 46.534375"></polygon>
                <polygon id="Fill-11" fill="#010202" points="53.0000933 47.27 53.7392552 47.27 53.7392552 41.51125 53.0000933 41.51125"></polygon>
                <path d="M62.9078552,47.27 L62.1624609,47.27 L61.6887989,45.88625 L59.2481933,45.88625 L58.7795172,47.27 L58.0341228,47.27 L59.9649186,41.5125 L60.9708271,41.5125 L62.9078552,47.27 Z M60.4647566,42.04875 L59.4451369,45.24125 L61.4893623,45.24125 L60.4647566,42.04875 Z" id="Fill-12" fill="#010202"></path>
                <path d="M68.6472672,47.36025 C68.0925841,47.36025 67.4344433,47.2565 66.9420841,47.06025 L67.0654855,46.45275 C67.5890066,46.60775 68.1349644,46.70775 68.662225,46.70775 C69.5858658,46.70775 69.7715912,46.46275 69.7715912,45.80025 C69.7715912,45.024 69.7715912,44.9565 68.5849433,44.69025 C67.1938728,44.379 67.0330771,44.10525 67.0330771,42.91775 C67.0330771,41.9165 67.4469081,41.4265 68.8728799,41.4265 C69.3739644,41.4265 69.9672883,41.494 70.4185137,41.624 L70.3624221,42.2515 C69.9049644,42.139 69.367732,42.0865 68.8878376,42.0865 C67.951732,42.0865 67.777225,42.279 67.777225,42.9465 C67.777225,43.734 67.777225,43.77025 68.9127672,44.049 C70.4409503,44.434 70.518232,44.6615 70.518232,45.789 C70.518232,46.77775 70.2302954,47.36025 68.6472672,47.36025" id="Fill-13" fill="#010202"></path>
                <polygon id="Fill-15" fill="#010202" points="76.2372017 42.1845 74.5282792 42.1845 74.5282792 41.512 78.6965045 41.512 78.6965045 42.1845 76.9825961 42.1845 76.9825961 47.27075 76.2372017 47.27075"></polygon>
                <path d="M86.7410299,45.61225 C86.7410299,46.566 86.1589243,47.3585 84.6681355,47.3585 C83.1860721,47.3585 82.5927482,46.566 82.5927482,45.61225 L82.5927482,43.17725 C82.5927482,42.2135 83.1860721,41.42475 84.6681355,41.42475 C86.1589243,41.42475 86.7410299,42.2135 86.7410299,43.17725 L86.7410299,45.61225 Z M83.3331566,45.601 C83.3331566,46.30475 83.7606989,46.70725 84.6681355,46.70725 C85.5755721,46.70725 86.0056074,46.30475 86.0056074,45.601 L86.0056074,43.18975 C86.0056074,42.4885 85.5755721,42.0885 84.6681355,42.0885 C83.7606989,42.0885 83.3331566,42.4885 83.3331566,43.18975 L83.3331566,45.601 Z" id="Fill-16" fill="#010202"></path>
                <polygon id="Fill-18" fill="#010202" points="96.525889 47.27 97.2662975 47.27 97.2662975 41.51125 96.525889 41.51125"></polygon>
                <polygon id="Fill-19" fill="#010202" points="102.50824 42.366375 102.50824 47.271375 101.7965 47.271375 101.7965 41.511375 102.809888 41.511375 105.310324 46.446375 105.310324 41.511375 106.022064 41.511375 106.022064 47.271375 104.997458 47.271375"></polygon>
                <g id="Group-24" transform="translate(109.709896, 41.250000)" fill="#010202">
                    <path d="M2.53832958,6.11025 C1.97990704,6.11025 1.3217662,6.0065 0.830653521,5.81025 L0.951561972,5.20275 C1.48256197,5.35775 2.02727324,5.45775 2.55827324,5.45775 C3.47443521,5.45775 3.66514648,5.21275 3.66514648,4.55025 C3.66514648,3.774 3.65268169,3.7065 2.47849859,3.44025 C1.08992113,3.129 0.925385915,2.85525 0.925385915,1.66775 C0.925385915,0.6665 1.3392169,0.1765 2.76394225,0.1765 C3.26751972,0.1765 3.86333662,0.244 4.31206901,0.374 L4.25348451,1.0015 C3.7997662,0.889 3.26004085,0.8365 2.78263944,0.8365 C1.84154789,0.8365 1.67327324,1.029 1.67327324,1.6965 C1.67327324,2.484 1.67327324,2.52025 2.7963507,2.799 C4.32578028,3.184 4.40680141,3.4115 4.40680141,4.539 C4.40680141,5.52775 4.12011127,6.11025 2.53832958,6.11025" id="Fill-20"></path>
                    <path d="M8.97763944,0.261875 L11.0492873,0.261875 C12.2907803,0.261875 12.7208155,0.799375 12.7208155,1.675625 L12.7208155,2.526875 C12.7208155,3.430625 12.2907803,3.964375 11.0492873,3.964375 L9.71430845,3.964375 L9.71430845,6.020625 L8.97763944,6.020625 L8.97763944,0.261875 Z M11.0256042,0.934375 L9.71430845,0.934375 L9.71430845,3.290625 L11.0256042,3.290625 C11.7360972,3.290625 11.9741746,3.098125 11.9741746,2.526875 L11.9741746,1.694375 C11.9741746,1.116875 11.7360972,0.934375 11.0256042,0.934375 L11.0256042,0.934375 Z" id="Fill-22"></path>
                </g>
                <polygon id="Fill-25" fill="#010202" points="126.799121 47.27 127.545762 47.27 127.545762 41.51125 126.799121 41.51125"></polygon>
                <path d="M134.472445,45.18375 L133.073896,45.18375 L133.073896,47.27 L132.326009,47.27 L132.326009,41.51125 L134.513579,41.51125 C135.7451,41.51125 136.183861,42.04875 136.183861,42.925 L136.183861,43.76625 C136.183861,44.44125 135.930826,44.91375 135.265206,45.09875 L136.763474,47.27 L135.907143,47.27 L134.472445,45.18375 Z M134.48865,42.185 L133.073896,42.185 L133.073896,44.5325 L134.48865,44.5325 C135.201636,44.5325 135.432234,44.33375 135.432234,43.77 L135.432234,42.945 C135.432234,42.36625 135.201636,42.185 134.48865,42.185 L134.48865,42.185 Z" id="Fill-26" fill="#010202"></path>
                <path d="M145.511761,47.27 L144.756395,47.27 L144.278993,45.88625 L141.847113,45.88625 L141.379683,47.27 L140.628057,47.27 L142.568824,41.5125 L143.573486,41.5125 L145.511761,47.27 Z M143.064923,42.04875 L142.04281,45.24125 L144.093268,45.24125 L143.064923,42.04875 Z" id="Fill-28" fill="#010202"></path>
                <g id="Group-33" transform="translate(148.350741, 41.250000)" fill="#010202">
                    <path d="M1.95734577,4.372 C1.95734577,5.1695 2.2627331,5.43575 3.20631761,5.43575 C3.55657817,5.43575 4.10627535,5.392 4.55251479,5.312 L4.62231761,5.94575 C4.21347254,6.047 3.61017676,6.11075 3.17515563,6.11075 C1.77535986,6.11075 1.21195141,5.49825 1.21195141,4.4145 L1.21195141,1.88075 C1.21195141,0.7845 1.77535986,0.177 3.17515563,0.177 C3.61017676,0.177 4.21347254,0.2445 4.62231761,0.34325 L4.55251479,0.9745 C4.10627535,0.89075 3.55657817,0.85075 3.20631761,0.85075 C2.2627331,0.85075 1.95734577,1.11325 1.95734577,1.92325 L1.95734577,4.372 Z" id="Fill-29"></path>
                    <path d="M9.80779437,0.261875 L9.80779437,6.046875 C9.80779437,6.720625 9.71181549,6.806875 8.71712535,7.721875 L8.25717465,7.204375 C9.04370282,6.440625 9.06489296,6.416875 9.06489296,6.020625 L9.06489296,0.261875 L9.80779437,0.261875 Z" id="Fill-31"></path>
                </g>
                <polygon id="Fill-34" fill="#010202" points="162.933297 47.27 163.679938 47.27 163.679938 41.51125 162.933297 41.51125"></polygon>
                <path d="M52.2449764,1.817125 C51.6653637,0.913375 50.5971313,0.374625 49.4578496,0.280875 C48.9467933,0.237125 48.4382299,0.285875 47.92842,0.418375 C46.2730961,0.870875 45.1188566,2.297125 44.567913,3.908375 C44.3572581,4.499625 44.2188989,5.034625 44.1166876,5.428375 C38.5611313,4.883375 36.1354834,4.522125 27.9660609,4.819625 C19.9761313,5.113375 11.6197369,5.582125 7.74443411,5.250875 C5.41850453,5.063375 2.88690594,4.537125 1.84235665,4.115875 L1.42104679,3.919625 C1.15180735,3.803375 0.944891858,3.705875 0.761659464,3.692125 C0.54477214,3.665875 0.360293267,3.734625 0.194511577,4.089625 C0.0387017174,4.455875 -0.241756029,4.830875 0.417631295,5.228375 C1.07452566,5.625875 3.54130735,6.598375 6.94668763,6.829625 C17.8259552,7.565875 23.9374412,6.737125 32.060744,6.915875 C38.3941031,7.062125 43.6941313,7.883375 43.6941313,7.883375 C43.6941313,7.883375 42.8540045,12.917125 42.7704904,17.947125 C42.6483355,25.720875 43.3999623,31.279625 43.7265397,32.522125 C44.0643355,33.848375 44.1877369,34.170875 44.5379975,34.359625 C44.8845186,34.540875 45.3182933,34.659625 45.7433426,34.694625 C46.3516243,34.738375 46.9536735,34.614625 47.3064271,34.235875 C47.4809341,34.095875 47.6267721,33.940875 47.7402017,33.730875 C47.9421313,33.413375 47.9583355,33.088375 47.8985045,32.919625 C46.2593848,27.968375 45.8181313,23.663375 45.7433426,20.384625 C45.661075,17.155875 45.9876524,11.583375 46.5535538,8.107125 C47.7152721,8.107125 49.2496876,7.934625 50.645744,7.169625 C52.9592088,5.919625 53.0688989,3.093375 52.2449764,1.817125 M49.7495257,4.765875 C49.3431735,5.228375 48.2799271,5.700875 46.9362228,5.608375 C47.3575327,3.697125 48.1814552,2.577125 49.2933144,2.667125 C50.1982581,2.750875 50.7354904,3.669625 49.7495257,4.765875 M98.8794904,3.445875 C98.3061102,2.549625 97.2478496,1.998375 96.0961031,1.902125 C95.5875397,1.863375 95.0714975,1.904625 94.5654271,2.049625 C92.9188285,2.502125 91.7596031,3.919625 91.2061665,5.529625 C91.0054834,6.133375 90.8583989,6.653375 90.7512017,7.047125 C85.454913,6.527125 83.1638848,6.193375 77.1259412,6.474625 C77.8252158,3.893375 78.609251,3.082125 78.9807017,2.364625 C79.4194623,1.532125 78.2614834,0.559625 77.0661102,0.592125 C76.1038285,0.620875 75.719913,1.059625 75.4494271,1.427125 C75.160244,1.835875 74.6591595,2.885875 74.1518426,5.405875 C74.0857792,5.733375 74.007251,6.153375 73.9224904,6.649625 C68.8705116,6.950875 66.6729693,7.159625 63.267589,6.883375 C60.9466454,6.688375 58.4237721,6.159625 57.3817158,5.732125 L56.9454482,5.554625 C56.6811947,5.428375 56.4655538,5.334625 56.2898003,5.317125 C56.0816383,5.298375 55.895913,5.319625 55.7313778,5.709625 C55.5631031,6.114625 55.2863848,6.464625 55.9495116,6.854625 C56.6001735,7.250875 59.0856524,8.134625 62.4636102,8.457125 C67.1578496,8.908375 69.8315468,8.784625 73.6046383,8.714625 C73.0811172,12.435875 72.5364059,18.229625 72.9078566,24.308375 C73.241913,29.743375 73.918751,32.958375 75.2823989,34.095875 C75.9579904,34.665875 77.958589,35.327125 80.2234412,34.023375 C88.0052088,30.098375 85.4923074,18.403375 77.6133144,18.560875 C77.1508707,18.569625 76.3020186,18.719625 75.8034271,18.804625 C75.9068848,14.203375 76.2297228,10.982125 76.6398144,8.682125 C77.666913,8.680875 78.7787721,8.689625 80.0389623,8.717125 C86.3698285,8.870875 90.3336313,9.509625 90.3336313,9.509625 C90.3336313,9.509625 89.4835327,14.529625 89.5022299,19.565875 C89.5159412,27.378375 90.1516454,31.363375 90.4645116,32.620875 C90.8160186,33.949625 90.8908074,34.185875 91.2610116,34.350875 C92.6857369,34.975875 93.6430327,34.655875 94.0020186,34.282125 C94.7710961,33.668375 94.7050327,32.999625 94.6489412,32.842125 C93.4585538,29.469625 92.6608074,25.002125 92.5212017,21.644625 C92.3828426,18.419625 92.6271524,13.200875 93.185575,9.732125 C94.3610045,9.737125 95.8866947,9.558375 97.2864904,8.799625 C99.5937228,7.543375 99.7071524,4.723375 98.8794904,3.445875 M77.3054341,21.234625 C77.6781313,21.234625 78.052075,21.288375 78.4110609,21.417125 C79.9305186,21.974625 81.1969412,23.369625 81.5147933,24.988375 C82.0196172,27.517125 80.9800538,30.883375 78.3811454,31.287125 C77.8227228,31.373375 77.2007299,31.400875 76.9314904,30.507125 C76.636075,29.382125 76.1038285,26.558375 75.9355538,21.392125 C76.3157299,21.304625 76.9265045,21.234625 77.3054341,21.234625 M96.397751,6.379625 C95.9714552,6.854625 94.92192,7.324625 93.5732299,7.223375 C93.9883074,5.319625 94.8234482,4.203375 95.9365538,4.305875 C96.8365116,4.377125 97.371251,5.298375 96.397751,6.379625 M101.671603,17.368375 C102.858251,17.368375 103.823026,16.398375 103.823026,15.195875 C103.823026,13.998375 102.858251,13.040875 101.671603,13.040875 C100.47623,13.040875 99.5176876,13.998375 99.5176876,15.195875 C99.5176876,16.398375 100.47623,17.368375 101.671603,17.368375 M122.659814,31.748375 C122.157483,31.527125 121.317357,31.767125 121.197695,30.507125 C120.977068,28.292125 121.62399,26.378375 121.025681,23.319625 C120.620575,21.262125 118.628702,20.280875 117.109244,20.024625 C116.123279,19.864625 114.506596,19.840875 112.790195,21.154625 C112.790195,21.154625 112.555857,20.280875 111.710744,19.962125 C110.76342,19.617125 109.084413,20.585875 108.401343,21.000875 C107.655948,21.445875 107.758159,22.637125 108.473638,22.909625 C108.985941,23.090875 108.8588,23.063375 109.343681,23.210875 C109.912075,23.405875 109.956948,23.549625 109.826068,25.270875 C109.459603,30.059625 109.619152,30.442125 109.488272,33.723375 C109.459603,34.423375 109.630371,34.699625 110.147659,34.699625 C110.651237,34.699625 111.430286,34.704625 112.191885,34.704625 C112.783962,34.704625 112.721638,34.168375 112.697955,33.759625 C112.624413,31.987125 112.595744,29.518375 112.650589,27.608375 C112.66804,26.867125 112.697955,26.105875 112.736596,25.167125 C112.778976,24.729625 112.9298,24.583375 113.286293,24.305875 C113.723807,23.930875 114.156336,23.625875 114.698554,23.369625 C115.438962,22.998375 118.568871,22.159625 118.343258,26.838375 C118.178723,30.094625 118.086483,32.080875 118.698505,33.514625 C119.218286,34.723375 120.164364,34.723375 120.680406,34.723375 C121.911927,34.723375 122.365645,34.469625 122.800667,33.459625 C123.192061,32.548375 123.143448,31.969625 122.659814,31.748375 M67.2176806,31.687125 C66.8861172,31.607125 66.2267299,31.580875 66.0434975,30.929625 C65.8415679,29.833375 65.8552792,28.649625 65.9811735,26.083375 C66.0534693,24.644625 66.2828214,22.497125 66.3738144,21.777125 C66.4473566,21.265875 66.5333637,20.439625 65.6558426,20.439625 C65.188413,20.439625 64.7471595,20.432125 64.2061876,20.432125 C63.6602299,20.432125 63.2027721,20.657125 63.0469623,21.684625 C63.0469623,21.684625 62.4910327,26.407125 62.7951735,29.805875 C62.8712088,30.525875 62.7378355,30.849625 62.0173707,31.350875 C61.0301595,32.034625 57.1872651,33.179625 57.2009764,28.403375 C57.2109482,26.612125 57.5873848,24.328375 57.5873848,21.869625 C57.5873848,20.868375 57.2645468,20.302125 56.4655538,19.962125 C55.5456524,19.568375 53.7008637,20.714625 53.1611383,21.000875 C52.3982933,21.435875 52.5167088,22.637125 53.2359271,22.909625 C53.7457369,23.090875 53.6161031,23.063375 54.1047228,23.210875 C54.6656383,23.405875 54.7616172,23.565875 54.5783848,25.270875 C54.4612158,26.338375 54.3789482,27.534625 54.3353214,27.929625 C54.2443285,28.722125 54.0760538,30.580875 54.5135679,31.922125 C55.1791876,33.913375 56.8232933,34.774625 58.3439975,35.024625 C59.6690045,35.242125 61.8179341,34.892125 63.3199412,33.923375 C63.5031735,33.794625 63.4894623,33.802125 63.5792088,33.745875 C64.0104904,34.475875 64.3844341,34.718375 65.6745397,34.718375 C66.6218637,34.718375 67.192751,34.425875 67.6227862,33.350875 C67.84092,32.807125 68.0864764,31.899625 67.2176806,31.687125 M104.157082,31.748375 C103.688406,31.533375 102.919328,31.743375 102.728617,30.733375 C102.602723,30.069625 102.676265,28.460875 102.728617,27.304625 C102.813378,25.720875 103.045223,23.850875 103.053948,21.869625 C103.053948,20.868375 102.728617,20.302125 101.935857,19.962125 C101.010969,19.568375 99.1611947,20.714625 98.6239623,21.000875 C97.8648566,21.435875 97.9795327,22.637125 98.7062299,22.909625 C99.2110538,23.090875 99.0826665,23.063375 99.5700397,23.210875 C100.138434,23.405875 100.230674,23.565875 100.051181,25.270875 C99.96642,26.047125 99.7507792,28.237125 99.7457933,28.993375 C99.7457933,29.743375 99.6859623,32.202125 100.198265,33.514625 C100.658216,34.723375 101.610526,34.723375 102.149005,34.723375 C103.388005,34.723375 103.872885,34.469625 104.299181,33.459625 C104.514821,32.962125 104.563434,32.710875 104.54723,32.350875 C104.534765,32.104625 104.440033,31.888375 104.157082,31.748375" id="Fill-35" fill="#010202"></path>
                <path d="M172.867983,2.460375 L172.209843,2.460375 L172.209843,3.542875 L172.867983,3.542875 C173.1983,3.542875 173.30799,3.414125 173.30799,3.194125 L173.30799,2.826625 C173.30799,2.532875 173.178357,2.460375 172.867983,2.460375 L172.867983,2.460375 Z M172.831836,4.019125 L172.209843,4.019125 L172.209843,5.027875 L171.69754,5.027875 L171.69754,1.982875 L172.885434,1.982875 C173.563519,1.982875 173.837744,2.277875 173.837744,2.790375 L173.837744,3.212875 C173.837744,3.505375 173.746751,3.742875 173.398983,3.927875 L174.202962,5.027875 L173.582216,5.027875 L172.831836,4.019125 Z M172.722145,6.165375 C174.386195,6.165375 175.246265,4.990375 175.246265,3.579125 C175.246265,2.166625 174.386195,0.992875 172.722145,0.992875 C171.040645,0.992875 170.180575,2.166625 170.180575,3.579125 C170.180575,4.990375 171.040645,6.165375 172.722145,6.165375 L172.722145,6.165375 Z M172.722145,0.257875 C174.752659,0.257875 176.014096,1.745375 176.014096,3.579125 C176.014096,5.411625 174.752659,6.897875 172.722145,6.897875 C170.691631,6.897875 169.411497,5.411625 169.411497,3.579125 C169.411497,1.745375 170.691631,0.257875 172.722145,0.257875 L172.722145,0.257875 Z" id="Fill-37" fill="#010202"></path>
            </g>
        </g>
    </g>
</svg>