<?xml version="1.0" encoding="UTF-8"?>
<svg width="165px" height="149px" viewBox="0 0 165 149" version="1.1" xmlns="http://www.w3.org/2000/svg" xmlns:xlink="http://www.w3.org/1999/xlink">
    <!-- Generator: sketchtool 58 (101010) - https://sketch.com -->
    <title>484C09F2-690E-47F6-AA24-087A2E7EA5A9</title>
    <desc>Created with sketchtool.</desc>
    <defs>
        <polygon id="path-1" points="0.0003 0 164.286 0 164.286 148.692 0.0003 148.692"></polygon>
    </defs>
    <g id="Page-1" stroke="none" stroke-width="1" fill="none" fill-rule="evenodd">
        <g id="l_home" transform="translate(-638.000000, -1266.000000)">
            <g id="illustration_2" transform="translate(638.000000, 1266.000000)">
                <mask id="mask-2" fill="white">
                    <use xlink:href="#path-1"></use>
                </mask>
                <g id="Clip-2"></g>
                <path d="M91.8363,20.2896 L74.1633,20.2926 L74.1633,37.9716 L91.8363,37.9686 L91.8363,20.2896 Z M27.2223,124.7286 C32.2353,122.6436 38.5863,122.0166 45.6543,122.0256 C53.1813,122.0256 61.4793,122.7006 69.8193,122.7066 C79.1823,122.7006 88.6773,121.8516 97.2813,117.8916 C105.2943,114.2076 112.3203,107.6436 117.2583,97.2066 L112.6143,92.5626 C108.0903,103.1676 101.9463,108.9006 94.6863,112.2846 C87.4143,115.6566 78.8163,116.5386 69.8193,116.5296 C61.8123,116.5296 53.5383,115.8516 45.6543,115.8486 C38.2563,115.8546 31.1553,116.4426 24.8613,119.0286 C19.3233,121.2816 14.5203,125.2926 11.2863,131.4096 L15.9153,136.0446 C18.5943,130.0506 22.3263,126.8046 27.2223,124.7286 L27.2223,124.7286 Z M99.6843,124.5786 C92.4063,127.9566 83.8143,128.8386 74.8173,128.8266 C66.8073,128.8326 58.5333,128.1516 50.6583,128.1456 C43.2543,128.1576 36.1503,128.7276 29.8593,131.3256 C24.2193,133.6176 19.3533,137.7456 16.1163,144.0576 L20.7453,148.6926 C23.4333,142.4616 27.2223,139.1406 32.2233,137.0286 C37.2333,134.9406 43.5873,134.3136 50.6583,134.3226 C58.1853,134.3226 66.4713,135.0006 74.8173,135.0006 C84.1833,134.9976 93.6843,134.1516 102.2703,130.1856 C108.9453,127.1226 114.9303,122.0736 119.5923,114.4716 L115.0743,109.9446 C110.8893,117.3486 105.6753,121.7856 99.6843,124.5786 L99.6843,124.5786 Z M164.2863,16.1196 L164.2803,-0.0024 L135.3543,0.0006 L135.3543,4.9236 L28.9323,4.9236 L28.9293,-0.0024 L0.0003,0.0006 L0.0003,16.1196 L28.9353,16.1196 L28.9323,11.2026 L44.6043,11.2026 L44.6073,56.7876 L83.5503,56.7876 L98.9403,72.0036 L121.3923,72.0036 L121.3953,11.2026 L135.3543,11.2026 L135.3543,16.1196 L164.2863,16.1196 Z M105.7953,56.7066 L83.7303,56.7066 L68.3793,41.4816 L60.2043,41.4846 L60.2043,11.2026 L105.7953,11.2026 L105.7953,56.7066 Z M71.7033,89.1726 L84.6063,102.0816 L84.4863,80.3226 L71.4933,67.3206 L31.8483,106.9656 L53.9133,106.9656 L71.7033,89.1726 Z" id="Fill-1" fill-opacity="0.07" fill="#000000" mask="url(#mask-2)"></path>
            </g>
        </g>
    </g>
</svg>