<?xml version="1.0" standalone="no"?>
<!DOCTYPE svg PUBLIC "-//W3C//DTD SVG 1.1//EN" "http://www.w3.org/Graphics/SVG/1.1/DTD/svg11.dtd" >
<svg xmlns="http://www.w3.org/2000/svg">
<metadata>Generated by IcoMoon</metadata>
<defs>
<font id="fond-lublin-icon" horiz-adv-x="1024">
<font-face units-per-em="1024" ascent="768" descent="-256" />
<missing-glyph horiz-adv-x="1024" />
<glyph unicode="&#x20;" horiz-adv-x="512" d="" />
<glyph unicode="&#xe900;" glyph-name="bracket_left" d="M828.15-135.68l-390.827 391.68 390.827 391.68-120.32 120.32-512-512 512-512z" />
<glyph unicode="&#xe901;" glyph-name="arrow_top" d="M0.022 256.008l90.236-90.236 357.744 357.104v-778.846h127.994v778.846l357.744-357.104 90.236 90.236-511.978 511.978z" />
<glyph unicode="&#xe902;" glyph-name="arrow_down" d="M0.022 255.992l90.236 90.236 357.744-357.104v778.846h127.994v-778.846l357.744 357.104 90.236-90.236-511.978-511.978z" />
<glyph unicode="&#xe903;" glyph-name="arrow_left" d="M512.007 768.007l90.24-90.24-357.12-357.76h778.88v-128h-778.88l357.12-357.76-90.24-90.24-512 512z" />
<glyph unicode="&#xe904;" glyph-name="file" d="M614.403 768h-409.6c-56.554 0-102.4-45.846-102.4-102.4v-819.2c0-56.554 45.846-102.4 102.4-102.4h614.4c56.554 0 102.4 45.846 102.4 102.4v614.4l-307.2 307.2zM819.203-153.6h-614.4v819.2h358.4v-256h256v-563.2z" />
<glyph unicode="&#xe905;" glyph-name="login" d="M910.215 768.007h-796.444c-63.147 0-113.778-50.631-113.778-113.778v-227.556h113.778v227.556h796.444v-796.444h-796.444v227.556h-113.778v-227.556c0-62.838 50.94-113.778 113.778-113.778h796.444c62.838 0 113.778 50.94 113.778 113.778v796.444c0 63.147-51.2 113.778-113.778 113.778v0zM402.766 52.345l80.782-80.782 284.444 284.444-284.444 284.444-80.782-80.213 147.342-147.342h-550.116v-113.778h550.116l-147.342-146.773z" />
<glyph unicode="&#xe906;" glyph-name="mail" d="M1023.986 665.59h-1023.461l-0.512-819.178h1023.973v819.178zM921.588-51.19h-819.178v511.986l409.589-255.993 409.589 255.993v-511.986zM511.999 307.201l-409.589 255.993h819.178l-409.589-255.993z" />
<glyph unicode="&#xe907;" glyph-name="mail-sent" d="M563.2 76.813h204.793v153.595l255.991-230.391-255.991-230.391v153.595h-204.793v153.595zM921.587 742.39h-819.172c-56.551 0-102.396-45.845-102.396-102.396v-614.379c0-56.551 45.845-102.396 102.396-102.396h358.387v102.396h-358.387v511.982l409.586-255.991 409.586 255.991v-307.189h102.396v409.586c0 56.551-45.845 102.396-102.396 102.396v0zM512.002 384.003l-409.586 255.991h819.172l-409.586-255.991z" />
<glyph unicode="&#xe908;" glyph-name="calendar" d="M950.85 646.093h-146.286v97.524h-97.524v-97.524h-390.095v97.524h-97.524v-97.524h-146.286v-877.714h877.714v877.714zM853.326-134.097h-682.667v536.381h682.667v-536.381zM268.184 304.76h243.81v-243.81h-243.81v243.81z" />
<glyph unicode="&#xe909;" glyph-name="facebook" d="M767.993 768.007v0 0-204.8h-102.4c-35.328 0-51.2-41.472-51.2-76.8v-128h153.6v-204.8h-153.6v-409.6h-204.8v409.6h-153.6v204.8h153.6v204.8c0 113.108 91.692 204.8 204.8 204.8h153.6z" />
<glyph unicode="&#xe90a;" glyph-name="youtube" d="M409.599 102.406l265.722 153.597-265.722 153.597v-307.193zM1001.459 503.293c6.656-24.063 11.264-56.319 14.336-97.278 3.584-40.959 5.12-76.286 5.12-107.005l3.072-43.007c0-112.126-8.192-194.555-22.527-247.291-12.8-46.079-42.495-75.775-88.574-88.574-24.063-6.656-68.095-11.264-135.677-14.336-66.559-3.584-127.485-5.12-183.804-5.12l-81.406-3.072c-214.523 0-348.152 8.192-400.887 22.527-46.079 12.8-75.775 42.495-88.574 88.574-6.656 24.063-11.264 56.319-14.336 97.278-3.584 40.959-5.12 76.286-5.12 107.005l-3.072 43.007c0 112.126 8.192 194.555 22.527 247.291 12.8 46.079 42.495 75.775 88.574 88.574 24.063 6.656 68.095 11.264 135.677 14.336 66.559 3.584 127.485 5.12 183.804 5.12l81.406 3.072c214.523 0 348.152-8.192 400.887-22.527 46.079-12.8 75.775-42.495 88.574-88.574z" />
<glyph unicode="&#xe90b;" glyph-name="pin" d="M512.002 743.619c-188.709 0-341.333-152.625-341.333-341.333 0-256 341.333-633.905 341.333-633.905s341.333 377.905 341.333 633.905c0 188.709-152.625 341.333-341.333 341.333zM512.002 280.381c-67.291 0-121.905 54.613-121.905 121.905s54.613 121.905 121.905 121.905c67.291 0 121.905-54.613 121.905-121.905s-54.613-121.905-121.905-121.905z" />
<glyph unicode="&#xe90c;" glyph-name="phone" d="M1023.972 59.121l-299.814 34.703-143.364-143.364c-161.001 81.923-292.988 213.339-374.91 374.91l143.933 143.933-34.703 298.676h-313.467c-32.998-579.147 443.179-1055.323 1022.325-1022.325v313.467z" />
<glyph unicode="&#xe90d;" glyph-name="discipline" d="M929.89 116.541l69.73 69.73-69.73 69.73-174.080-174.080-417.89 417.89 174.080 174.080-69.73 69.73-69.73-69.73-69.73 69.73-104.35-104.35-69.73 69.73-69.73-69.73 69.73-69.73-104.35-104.35 69.73-69.73-69.73-69.73 69.73-69.73 174.080 174.080 417.89-417.89-174.080-174.080 69.73-69.73 69.73 69.73 69.73-69.73 104.35 104.35 69.73-69.73 69.73 69.73-69.73 69.73 104.35 104.35z" />
<glyph unicode="&#xe90e;" glyph-name="search" d="M725.61 127.723h-44.942l-15.929 15.36c55.751 64.853 89.316 149.049 89.316 240.64 0 204.231-165.547 369.778-369.778 369.778s-369.778-165.547-369.778-369.778c0-204.231 165.547-369.778 369.778-369.778 91.591 0 175.787 33.564 240.64 89.316l15.36-15.929v-44.942l284.444-283.876 84.764 84.764-283.876 284.444zM384.277 127.723c-141.653 0-256 114.347-256 256s114.347 256 256 256c141.653 0 256-114.347 256-256s-114.347-256-256-256z" />
<glyph unicode="&#xe90f;" glyph-name="arrow_right" d="M511.993 768.007l-90.24-90.24 357.12-357.76h-778.88v-128h778.88l-357.12-357.76 90.24-90.24 512 512z" />
<glyph unicode="&#xe910;" glyph-name="www" d="M735.225 153.607c4.096 33.792 7.168 67.584 7.168 102.4s-3.072 68.608-7.168 102.4h173.056c8.192-32.768 13.312-67.072 13.312-102.4s-5.12-69.632-13.312-102.4h-173.056zM644.601-131.065c30.72 56.832 54.272 118.272 70.656 182.272h151.040c-49.152-84.48-127.488-150.016-221.696-182.272v0zM631.801 153.607h-239.616c-5.12 33.792-8.192 67.584-8.192 102.4s3.072 69.12 8.192 102.4h239.616c4.608-33.28 8.192-67.584 8.192-102.4s-3.584-68.608-8.192-102.4v0zM511.993-151.545c-42.496 61.44-76.8 129.536-97.792 202.752h195.584c-20.992-73.216-55.296-141.312-97.792-202.752v0zM307.193 460.807h-149.504c48.64 84.992 127.488 150.528 221.184 182.272-30.72-56.832-53.76-118.272-71.68-182.272v0zM157.689 51.207h149.504c17.92-64 40.96-125.44 71.68-182.272-93.696 32.256-172.544 97.792-221.184 182.272v0zM115.705 153.607c-8.192 32.768-13.312 67.072-13.312 102.4s5.12 69.632 13.312 102.4h173.056c-4.096-33.792-7.168-67.584-7.168-102.4s3.072-68.608 7.168-102.4h-173.056zM511.993 664.071c42.496-61.44 76.8-130.048 97.792-203.264h-195.584c20.992 73.216 55.296 141.824 97.792 203.264v0zM866.297 460.807h-151.040c-16.384 64-39.936 125.44-70.656 182.272 94.208-32.256 172.544-97.28 221.696-182.272v0zM511.993 768.007c-283.136 0-512-230.4-512-512 0-135.791 53.943-266.020 149.961-362.039s226.248-149.961 362.039-149.961c282.77 0 512 229.23 512 512 0 135.791-53.943 266.020-149.961 362.039s-226.248 149.961-362.039 149.961z" />
<glyph unicode="&#xe911;" glyph-name="discipline1" d="M950.762 109.577l73.213 73.213-73.213 73.213-182.775-182.775-438.762 438.762 182.775 182.775-73.213 73.213-73.213-73.213-73.213 73.213-109.562-109.562-73.213 73.213-73.213-73.213 73.213-73.213-109.562-109.562 73.213-73.213-73.213-73.213 73.213-73.213 182.775 182.775 438.762-438.762-182.775-182.775 73.213-73.213 73.213 73.213 73.213-73.213 109.562 109.562 73.213-73.213 73.213 73.213-73.213 73.213 109.562 109.562z" />
<glyph unicode="&#xe912;" glyph-name="sport_sking" d="M533.186 513.45l-100.113-100.335-67.78-69.155h-337.999l115.911 119.773h171.398l49.745 49.832h168.411l115.822 119.612h348.101l-117.387-119.727h-346.108zM399.977 631.777v136.23h135.882v-136.23h-135.882zM210.38-255.984l342.266 343.071 34.155-34.254-308.134-308.771-1.499-0.046h-66.788zM616.533 426.406h173.428l-168.469-168.843 135.283-135.606 171.652 172.056 34.155-34.208-514.61-515.751-1.522-0.046h-66.765l290.353 291.043-221.927 222.512 168.423 168.843z" />
<glyph unicode="&#xe913;" glyph-name="sport_rowing" d="M572.412 592.921l-110.152-0.019v-110.19l110.152 0.019v110.19zM169.686-58.027c31.245 12.995 70.83 16.903 114.883 16.847 46.914 0 98.634-4.207 150.616-4.244 58.358 0.037 117.538 5.329 171.165 30.011 49.943 22.961 93.735 63.874 124.513 128.925l-28.945 28.945c-28.197-66.099-66.492-101.832-111.742-122.923-45.325-21.017-98.914-26.515-154.991-26.459-49.906 0-101.476 4.226-150.616 4.244-46.111-0.037-90.369-3.702-129.599-19.82-34.517-14.043-64.453-39.042-84.61-77.168l28.852-28.889c16.697 37.36 39.958 57.591 70.474 70.53v0zM621.327-57.092c-45.362-21.054-98.914-26.552-154.991-26.477-49.925-0.037-101.495 4.207-150.578 4.244-46.148-0.074-90.426-3.628-129.636-19.82-35.153-14.286-65.482-40.014-85.658-79.356l28.852-28.889c16.754 38.836 40.37 59.536 71.54 72.7 31.226 13.014 70.83 16.922 114.902 16.866 46.914 0 98.56-4.226 150.578-4.226 58.377 0.019 117.594 5.292 171.109 30.011 41.604 19.091 78.908 50.561 107.965 97.942l-28.16 28.216c-26.084-46.148-58.582-73.803-95.923-91.211v0zM1023.979 618.911l-0.037 100.485-180.29-0.019v-30.684h-663.308l-0.019 30.703-180.309-0.019v-100.467h180.346l-0.019 30.647h97.681l0.019-284.122h242.724l95.923-94.839h139.939l0.019 378.961h87.004v-30.647h180.328zM659.415 365.941h-137.527l-95.679 94.895-50.954-0.019v188.742h284.16v-283.617zM446.927 163.586l80.422-80.459-0.748 135.619-80.983 81.039-247.1-247.1h137.527l110.881 110.9z" />
<glyph unicode="&#xe914;" glyph-name="sport_cycling" d="M861.96 597.532l105.905-106.047-0.206-216.459-296.969 0.041-118.426-118.585-75.579 75.68 147.827 147.902h131.728l104.568-104.708 0.143 321.168-0.055-0.055-0.021 0.041-106.891-106.973-102.081-0.165-0.041 0.144-166.865 167.131 151.198-0.124 59.953-59.951h164.665l-85.55 85.644 85.694 85.768 85.591-85.747-84.591-84.704zM899.478 113.623c84.44-84.553 84.419-221.667 0-306.179-84.44-84.553-221.308-84.553-305.769 0-84.44 84.512-84.44 221.625 0 306.179 84.44 84.532 221.328 84.532 305.769 0zM628.353-157.886c65.196-65.283 171.224-65.242 236.44 0.021 65.175 65.304 65.216 171.495 0.021 236.758-65.216 65.283-171.265 65.263-236.42 0-65.216-65.263-65.216-171.454-0.041-236.779zM425.223 588.505c84.44-84.512 84.419-221.605 0-306.159-84.44-84.574-221.328-84.574-305.769 0-84.44 84.553-84.44 221.646 0 306.179s221.328 84.532 305.769-0.021zM154.118 317.037c65.175-65.283 171.224-65.242 236.42 0 65.175 65.304 65.196 171.475 0.021 236.758-65.196 65.304-171.265 65.283-236.44 0-65.196-65.283-65.216-171.454 0-236.758z" />
<glyph unicode="&#xe915;" glyph-name="triangle_down" d="M0.008 512l511.992-511.992 511.992 511.992z" />
<glyph unicode="&#xe916;" glyph-name="bracket_right" d="M195.835-135.673l390.827 391.68-390.827 391.68 120.32 120.32 512-512-512-512z" />
<glyph unicode="&#xe917;" glyph-name="triangle_top" d="M0.006 0.010l511.987 511.987 511.987-511.987z" />
<glyph unicode="&#xe918;" glyph-name="triangle_right" d="M255.999 768.008l511.994-511.994-511.994-511.994z" />
<glyph unicode="&#xe919;" glyph-name="triangle_left" d="M767.99-255.986l-511.987 511.987 511.987 511.987z" />
<glyph unicode="&#xe91a;" glyph-name="bracket_top" d="M120.319-60.152l391.674 390.821 391.674-390.821 120.318 120.318-511.993 511.993-511.993-511.993z" />
<glyph unicode="&#xe91b;" glyph-name="bracket_down" d="M120.332 572.154l391.668-390.815 391.668 390.815 120.316-120.316-511.986-511.986-511.986 511.986z" />
</font>
</defs>
</svg>
